<svg width="24" height="24" viewBox="0 0 24 24" fill="none" xmlns="http://www.w3.org/2000/svg">
<path d="M16.9789 0.00410811C17.9154 -0.0282279 18.8487 0.130604 19.7218 0.470912C20.595 0.81122 21.3896 1.32587 22.0572 1.98345C22.7008 2.65103 23.204 3.44085 23.5371 4.30622C23.8702 5.1716 24.0264 6.09497 23.9965 7.02176V16.9784C23.9965 19.0577 23.3168 20.8471 22.0172 22.1067C20.6386 23.3795 18.8142 24.0583 16.9389 23.9961H7.06222C5.2026 24.0537 3.39545 23.3747 2.0339 22.1067C1.35898 21.4307 0.830484 20.6229 0.481352 19.7338C0.132219 18.8446 -0.0300746 17.8931 0.00458028 16.9384V7.02176C0.00458028 2.80317 2.80364 0.00410811 7.02223 0.00410811H16.9789ZM17.0289 2.23336H7.06222C5.6127 2.23336 4.36312 2.66322 3.5334 3.48294C3.09004 3.95517 2.74645 4.51194 2.52316 5.11998C2.29987 5.72801 2.20147 6.37483 2.23383 7.02176V16.9384C2.23383 18.4379 2.66369 19.6375 3.5334 20.5172C4.50339 21.3752 5.76849 21.8231 7.06222 21.7668H16.9389C18.2326 21.8231 19.4977 21.3752 20.4677 20.5172C20.9334 20.0565 21.2983 19.504 21.5392 18.8948C21.7801 18.2857 21.8918 17.6331 21.8673 16.9784V7.02176C21.8995 5.73486 21.434 4.48513 20.5677 3.53293C20.0955 3.08957 19.5387 2.74598 18.9307 2.52269C18.3226 2.2994 17.6758 2.20099 17.0289 2.23336ZM12.0006 5.76218C15.3894 5.76218 18.1985 8.56124 18.1985 11.9601C18.1985 13.6039 17.5455 15.1804 16.3832 16.3427C15.2208 17.505 13.6444 18.158 12.0006 18.158C10.3568 18.158 8.78031 17.505 7.61797 16.3427C6.45563 15.1804 5.80264 13.6039 5.80264 11.9601C5.80264 10.3163 6.45563 8.73985 7.61797 7.57751C8.78031 6.41517 10.3568 5.76218 12.0006 5.76218ZM12.0006 7.98144C10.9496 7.98669 9.94323 8.40651 9.2001 9.14964C8.45696 9.89277 8.03715 10.8992 8.03189 11.9501C8.03715 13.001 8.45696 14.0074 9.2001 14.7506C9.94323 15.4937 10.9496 15.9135 12.0006 15.9188C13.0515 15.9135 14.0579 15.4937 14.801 14.7506C15.5442 14.0074 15.964 13.001 15.9692 11.9501C15.964 10.8992 15.5442 9.89277 14.801 9.14964C14.0579 8.40651 13.0515 7.98669 12.0006 7.98144ZM18.4384 4.2127C18.8096 4.2127 19.1656 4.36015 19.428 4.62261C19.6905 4.88508 19.8379 5.24105 19.8379 5.61223C19.8379 5.98341 19.6905 6.33939 19.428 6.60185C19.1656 6.86431 18.8096 7.01176 18.4384 7.01176C18.0672 7.01176 17.7113 6.86431 17.4488 6.60185C17.1863 6.33939 17.0389 5.98341 17.0389 5.61223C17.0389 5.24105 17.1863 4.88508 17.4488 4.62261C17.7113 4.36015 18.0672 4.2127 18.4384 4.2127Z" fill="#667300"/>
</svg>
