<svg width="103" height="113" viewBox="0 0 103 113" fill="none" xmlns="http://www.w3.org/2000/svg">
<path d="M55.6543 33.6875L50.478 14.3691C49.4483 10.5264 46.9438 7.24759 43.5155 5.25397C40.0871 3.26034 36.0156 2.71519 32.1968 3.73845L24.645 52.3491L38.88 105.475L93.0199 90.9679C95.342 90.3739 97.3697 88.9555 98.7294 86.9741C100.089 84.9927 100.689 82.5817 100.419 80.1854L95.396 34.9443C95.2339 33.504 94.7623 32.1153 94.014 30.8746C93.2657 29.6338 92.2586 28.5707 91.0624 27.7587C89.8662 26.9468 88.5095 26.4054 87.0863 26.1723C85.6631 25.9391 84.2075 26.0197 82.8203 26.4083L55.6543 33.6875ZM38.88 105.475L24.481 109.333C21.9351 110.015 19.2208 109.652 16.9352 108.322C14.6497 106.993 12.98 104.808 12.2936 102.246L3.23496 68.4386C2.54853 65.8768 2.90157 63.1489 4.21641 60.8551C5.53125 58.5613 7.70018 56.8894 10.2461 56.2073L24.645 52.3491" fill="#D0D8AC"/>
<path d="M24.645 52.3491L32.1968 3.73844C36.0156 2.71519 40.0871 3.26034 43.5155 5.25397C46.9438 7.2476 49.4483 10.5264 50.478 14.3691L55.6543 33.6875L82.8203 26.4083C84.2075 26.0197 85.6631 25.9391 87.0863 26.1723C88.5095 26.4054 89.8662 26.9468 91.0624 27.7587C92.2586 28.5707 93.2657 29.6338 94.014 30.8746C94.7623 32.1153 95.2339 33.504 95.396 34.9443L100.419 80.1855C100.689 82.5817 100.089 84.9927 98.7294 86.9741C97.3697 88.9555 95.342 90.3739 93.0199 90.9679L38.88 105.475M24.645 52.3491L38.88 105.475M24.645 52.3491L10.2461 56.2073C7.70018 56.8894 5.53125 58.5613 4.21641 60.8551C2.90157 63.1489 2.54853 65.8768 3.23496 68.4386L12.2936 102.246C12.98 104.808 14.6497 106.993 16.9352 108.322C19.2208 109.652 21.9351 110.015 24.481 109.333L38.88 105.475" stroke="#667300" stroke-width="5" stroke-linecap="round" stroke-linejoin="round"/>
</svg>
