<svg width="139" height="108" viewBox="0 0 139 108" fill="none" xmlns="http://www.w3.org/2000/svg">
<g id="Group 112">
<g id="Vector">
<path d="M105.753 104.927V91.2262C105.753 83.959 102.866 76.9896 97.7272 71.8509C92.5886 66.7123 85.6191 63.8254 78.352 63.8254H30.4007C23.1336 63.8254 16.1641 66.7123 11.0255 71.8509C5.88686 76.9896 3 83.959 3 91.2262V104.927" fill="#D0D8AC"/>
<path d="M105.753 104.927V91.2262C105.753 83.959 102.866 76.9896 97.7272 71.8509C92.5886 66.7123 85.6191 63.8254 78.352 63.8254H30.4007C23.1336 63.8254 16.1641 66.7123 11.0255 71.8509C5.88686 76.9896 3 83.959 3 91.2262V104.927H105.753Z" stroke="#667300" stroke-width="5" stroke-linecap="square" stroke-linejoin="round"/>
</g>
<path id="Vector_2" d="M54.5 49.9265C67.4787 49.9265 78 39.4052 78 26.4265C78 13.4478 67.4787 2.92651 54.5 2.92651C41.5213 2.92651 31 13.4478 31 26.4265C31 39.4052 41.5213 49.9265 54.5 49.9265Z" fill="#D0D8AC" stroke="#667300" stroke-width="5" stroke-linecap="square"/>
<path id="Vector_3" d="M93.4512 41.4247L107.152 55.1251L134.552 27.7244" stroke="#667300" stroke-width="5" stroke-linecap="square" stroke-linejoin="round"/>
</g>
</svg>
