<svg width="35" height="38" viewBox="0 0 35 38" fill="none" xmlns="http://www.w3.org/2000/svg">
<g id="Group 246">
<path id="Vector" d="M2 8.80005H5.4H32.6" stroke="#C05C5C" stroke-width="3" stroke-linecap="square" stroke-linejoin="round"/>
<path id="Vector_2" d="M29.1999 8.8V32.6C29.1999 33.5017 28.8417 34.3665 28.2041 35.0042C27.5664 35.6418 26.7016 36 25.7999 36H8.7999C7.89817 36 7.03336 35.6418 6.39574 35.0042C5.75812 34.3665 5.3999 33.5017 5.3999 32.6V8.8M10.4999 8.8V5.4C10.4999 4.49826 10.8581 3.63346 11.4957 2.99584C12.1334 2.35821 12.9982 2 13.8999 2H20.6999C21.6016 2 22.4664 2.35821 23.1041 2.99584C23.7417 3.63346 24.0999 4.49826 24.0999 5.4V8.8" stroke="#C05C5C" stroke-width="3" stroke-linecap="square" stroke-linejoin="round"/>
<path id="Vector_3" d="M13.8999 17.3V27.5" stroke="#C05C5C" stroke-width="3" stroke-linecap="square" stroke-linejoin="round"/>
<path id="Vector_4" d="M20.7 17.3V27.5" stroke="#C05C5C" stroke-width="3" stroke-linecap="square" stroke-linejoin="round"/>
</g>
</svg>
