<svg width="24" height="24" viewBox="0 0 24 24" fill="none" xmlns="http://www.w3.org/2000/svg">
<path d="M24 11.7C24 18.15 18.73 23.38 12.22 23.38C10.15 23.38 8.22 22.85 6.52 21.93L0 24L2.13 17.73C1.01779 15.9117 0.429488 13.8215 0.43 11.69C0.44 5.23 5.72 0 12.23 0C18.72 0 24 5.23 24 11.7ZM12.22 1.85C6.76 1.85 2.32 6.26 2.32 11.68C2.32 13.83 3.02 15.82 4.2 17.44L2.96 21.1L6.76 19.9C8.38203 20.9631 10.2806 21.5265 12.22 21.52C17.68 21.52 22.12 17.12 22.12 11.69C22.1068 9.07487 21.0573 6.57165 19.2015 4.72902C17.3458 2.88639 14.8352 1.85467 12.22 1.86M18.17 14.38C18.09 14.26 17.9 14.19 17.61 14.05C17.33 13.91 15.91 13.21 15.64 13.12C15.38 13.02 15.18 12.97 14.99 13.26C14.79 13.55 14.24 14.19 14.08 14.38C13.91 14.58 13.74 14.6 13.45 14.46C13.16 14.31 12.23 14.01 11.13 13.03C10.5018 12.4526 9.96264 11.7854 9.53 11.05C9.35 10.76 9.5 10.61 9.65 10.47C9.78 10.34 9.94 10.13 10.08 9.97C10.23 9.8 10.28 9.67 10.37 9.49C10.47 9.29 10.42 9.13 10.35 8.99C10.27 8.84 9.7 7.43 9.45 6.86C9.21 6.28 8.97 6.38 8.81 6.38C8.64 6.38 8.44 6.35 8.25 6.35C8.05 6.35 7.75 6.43 7.48 6.71C7.22 7 6.48 7.69 6.48 9.11C6.48 10.51 7.51 11.87 7.65 12.07C7.79 12.26 9.65 15.24 12.58 16.39C15.52 17.54 15.52 17.16 16.05 17.11C16.58 17.06 17.75 16.41 18 15.75C18.24 15.08 18.24 14.5 18.17 14.38Z" fill="#667300"/>
</svg>
