<svg width="91" height="91" viewBox="0 0 91 91" fill="none" xmlns="http://www.w3.org/2000/svg">
<circle cx="45.5" cy="45.5" r="45.5" fill="#799902"/>
<path d="M64.375 24C65.8275 24 67 25.1725 67 26.625V63.375C67 64.8275 65.8275 66 64.375 66H53.875V50.25H59.125L60.4375 43.6875H53.875V41.0625C53.875 38.4375 55.1875 37.125 57.8125 37.125H60.4375V30.5625H55.1875C50.3575 30.5625 47.3125 34.3425 47.3125 39.75V43.6875H42.0625V50.25H47.3125V66H27.625C26.9288 66 26.2611 65.7234 25.7688 65.2312C25.2766 64.7389 25 64.0712 25 63.375V26.625C25 25.1725 26.1725 24 27.625 24H64.375Z" fill="#F3F9E6"/>
</svg>
