<svg width="91" height="91" viewBox="0 0 91 91" fill="none" xmlns="http://www.w3.org/2000/svg">
<circle cx="45.5" cy="45.5" r="45.5" fill="#799902"/>
<path d="M53.7754 24.6739C55.4362 24.6166 57.0912 24.8982 58.6395 25.5017C60.1877 26.1052 61.5968 27.0178 62.7807 28.1838C63.9219 29.3677 64.8142 30.7682 65.4049 32.3028C65.9956 33.8373 66.2727 35.4747 66.2197 37.1182V54.7742C66.2197 58.4614 65.0143 61.6346 62.7098 63.8681C60.2651 66.1252 57.03 67.3288 53.7045 67.2185H36.1903C32.8927 67.3207 29.6881 66.1166 27.2737 63.8681C26.0768 62.6694 25.1397 61.237 24.5206 59.6603C23.9015 58.0835 23.6137 56.3962 23.6751 54.7033V37.1182C23.6751 29.6375 28.6387 24.6739 36.1194 24.6739H53.7754ZM53.8641 28.627H36.1903C33.6199 28.627 31.4041 29.3893 29.9327 30.8429C29.1465 31.6803 28.5372 32.6676 28.1413 33.7458C27.7453 34.824 27.5708 35.971 27.6282 37.1182V54.7033C27.6282 57.3624 28.3905 59.4896 29.9327 61.0496C31.6528 62.5709 33.8962 63.3653 36.1903 63.2654H53.7045C55.9987 63.3653 58.2421 62.5709 59.9621 61.0496C60.7879 60.2326 61.435 59.2528 61.8622 58.1726C62.2894 57.0923 62.4875 55.9351 62.4439 54.7742V37.1182C62.5011 34.8362 61.6756 32.62 60.1394 30.9315C59.302 30.1453 58.3147 29.536 57.2365 29.1401C56.1582 28.7441 55.0113 28.5696 53.8641 28.627ZM44.9474 34.8846C50.9569 34.8846 55.9381 39.8482 55.9381 45.8753C55.9381 48.7902 54.7802 51.5858 52.719 53.6469C50.6579 55.7081 47.8623 56.866 44.9474 56.866C42.0325 56.866 39.237 55.7081 37.1758 53.6469C35.1147 51.5858 33.9567 48.7902 33.9567 45.8753C33.9567 42.9604 35.1147 40.1649 37.1758 38.1037C39.237 36.0426 42.0325 34.8846 44.9474 34.8846ZM44.9474 38.82C43.0838 38.8293 41.2992 39.5738 39.9814 40.8916C38.6636 42.2093 37.9192 43.994 37.9098 45.8576C37.9192 47.7212 38.6636 49.5058 39.9814 50.8236C41.2992 52.1414 43.0838 52.8859 44.9474 52.8952C46.811 52.8859 48.5957 52.1414 49.9135 50.8236C51.2312 49.5058 51.9757 47.7212 51.985 45.8576C51.9757 43.994 51.2312 42.2093 49.9135 40.8916C48.5957 39.5738 46.811 38.8293 44.9474 38.82ZM56.3636 32.1369C57.0218 32.1369 57.653 32.3984 58.1184 32.8638C58.5839 33.3293 58.8453 33.9605 58.8453 34.6187C58.8453 35.2769 58.5839 35.9082 58.1184 36.3736C57.653 36.839 57.0218 37.1005 56.3636 37.1005C55.7054 37.1005 55.0741 36.839 54.6087 36.3736C54.1433 35.9082 53.8818 35.2769 53.8818 34.6187C53.8818 33.9605 54.1433 33.3293 54.6087 32.8638C55.0741 32.3984 55.7054 32.1369 56.3636 32.1369Z" fill="#F3F9E6"/>
</svg>
