<svg width="974" height="188" viewBox="0 0 974 188" fill="none" xmlns="http://www.w3.org/2000/svg">
<path d="M144.31 69.42C144.31 94.57 133.57 117.21 116.41 133.01C118.74 124.18 119.97 114.91 119.97 105.36C119.97 89.62 116.62 74.68 110.57 61.18C104.52 74.68 101.17 89.63 101.17 105.36C101.17 114.91 102.4 124.18 104.73 133.01C87.58 117.22 76.83 94.58 76.83 69.42C76.83 54.38 80.67 40.26 87.42 27.94C93.19 17.39 101.09 8.19001 110.57 0.890015C120.03 8.17001 127.95 17.38 133.72 27.94C140.47 40.25 144.31 54.38 144.31 69.42Z" fill="#9CBE02"/>
<path d="M195.61 161.79C177.82 179.58 154.22 187.99 130.92 187.03C138.81 182.43 146.23 176.75 152.99 169.99C164.12 158.86 172.32 145.93 177.58 132.1C163.75 137.37 150.82 145.57 139.69 156.69C132.94 163.44 127.25 170.87 122.65 178.76C121.69 155.46 130.1 131.86 147.89 114.07C158.52 103.44 171.23 96.16 184.71 92.23C196.25 88.85 208.34 87.94 220.2 89.48C221.74 101.32 220.83 113.43 217.45 124.97C213.52 138.45 206.24 151.16 195.61 161.79Z" fill="#B3BD01"/>
<path d="M73.24 114.08C91.03 131.87 99.44 155.47 98.48 178.77C93.88 170.88 88.2 163.46 81.44 156.7C70.31 145.57 57.38 137.37 43.55 132.11C48.82 145.94 57.02 158.87 68.14 170C74.89 176.75 82.32 182.44 90.21 187.04C66.91 188 43.31 179.59 25.52 161.8C14.89 151.17 7.60997 138.46 3.67997 124.98C0.29997 113.44 -0.61003 101.35 0.92997 89.49C12.77 87.95 24.88 88.86 36.42 92.24C49.9 96.17 62.61 103.45 73.24 114.08Z" fill="#84BF04"/>
<path d="M273.03 54.5H363.85V77.77H330.52V177.93H306.18V77.77H273.03V54.5Z" fill="black"/>
<path d="M420.09 87.3C429.85 87.3 437.78 90.54 443.9 97C450.25 103.59 453.42 112.52 453.42 123.81V177.95H430.67V126.63C430.67 120.88 429.11 116.4 426 113.23C422.88 110.06 418.62 108.47 413.22 108.47C407.22 108.47 402.49 110.32 399.03 114.03C395.56 117.73 393.83 123.17 393.83 130.34V177.95H371.08V54.51H393.83V99.65C399.24 91.42 407.99 87.31 420.1 87.31L420.09 87.3Z" fill="black"/>
<path d="M553.23 143.2H486.75C489.69 154.25 497.98 159.77 511.61 159.77C520.31 159.77 526.89 156.83 531.36 150.95L549.7 161.53C541 174.11 528.19 180.4 511.26 180.4C496.68 180.4 484.99 175.99 476.17 167.18C467.35 158.36 462.95 147.25 462.95 133.85C462.95 120.45 467.3 109.63 476 100.7C484.58 91.77 495.75 87.3 509.5 87.3C523.25 87.3 533.19 91.77 541.42 100.7C549.88 109.64 554.12 120.69 554.12 133.85C554.12 136.32 553.82 139.43 553.24 143.2H553.23ZM486.4 125.56H531.37C530.08 119.81 527.46 115.4 523.52 112.34C519.58 109.28 514.91 107.76 509.5 107.76C503.38 107.76 498.33 109.32 494.33 112.43C490.33 115.55 487.69 119.92 486.4 125.57V125.56Z" fill="black"/>
<path d="M663.79 111.63H725.69V121.15C725.69 138.78 720.04 153.07 708.76 164C697.48 174.93 682.9 180.4 665.03 180.4C645.99 180.4 630.17 174.23 617.6 161.89C605.14 149.43 598.91 134.27 598.91 116.39C598.91 98.51 605.08 83.18 617.43 70.72C629.89 58.26 645.29 52.03 663.63 52.03C675.03 52.03 685.5 54.61 695.02 59.79C704.54 64.96 712.01 71.95 717.42 80.77L696.61 92.76C693.67 87.71 689.21 83.59 683.21 80.42C677.21 77.25 670.63 75.66 663.46 75.66C651.59 75.66 641.89 79.54 634.37 87.3C626.85 94.82 623.08 104.52 623.08 116.39C623.08 128.26 626.9 137.67 634.54 145.31C642.18 152.83 652.41 156.59 665.22 156.59C674.51 156.59 682.27 154.53 688.5 150.42C694.73 146.3 698.96 140.55 701.2 133.14H663.82V111.63H663.79Z" fill="black"/>
<path d="M811.74 167C802.81 175.93 791.75 180.4 778.59 180.4C765.43 180.4 754.37 175.93 745.44 167C736.51 158.07 732.04 147.02 732.04 133.85C732.04 120.68 736.51 109.81 745.44 100.87C754.49 91.82 765.55 87.29 778.59 87.29C791.63 87.29 802.68 91.82 811.74 100.87C820.79 109.92 825.32 120.91 825.32 133.85C825.32 146.79 820.79 157.95 811.74 167ZM761.48 151.31C766.07 155.89 771.77 158.19 778.59 158.19C785.41 158.19 791.11 155.9 795.69 151.31C800.27 146.73 802.57 140.91 802.57 133.86C802.57 126.81 800.28 120.98 795.69 116.4C791.1 111.82 785.4 109.52 778.59 109.52C771.78 109.52 766.07 111.81 761.48 116.4C757.01 121.11 754.78 126.92 754.78 133.86C754.78 140.8 757.01 146.61 761.48 151.31Z" fill="black"/>
<path d="M895.67 104.93L858.29 156.6H897.44V177.94H827.78V162.77L864.99 111.1H829.55V89.76H895.68V104.93H895.67Z" fill="black"/>
<path d="M972.03 104.93L934.65 156.6H973.8V177.94H904.14V162.77L941.35 111.1H905.91V89.76H972.04V104.93H972.03Z" fill="black"/>
</svg>
