<svg width="105" height="35" viewBox="0 0 105 35" fill="none" xmlns="http://www.w3.org/2000/svg">
<path d="M63.3834 29.3599H58.6657L49.1602 17.897V29.3599H45.1982V5.29643H49.1602V16.0991L58.3213 5.29643H63.039L53.2927 17.0209L63.3834 29.3599Z" fill="black"/>
<path d="M66.6203 22.3478C66.8946 23.6529 67.5285 24.6568 68.5129 25.3565C69.5003 26.0562 70.7042 26.4061 72.1304 26.4061C74.1053 26.4061 75.5864 25.6972 76.5739 24.2735L79.6398 26.0623C77.9392 28.5599 75.428 29.8102 72.0969 29.8102C69.2962 29.8102 67.0348 28.9554 65.3129 27.2487C63.591 25.5421 62.7285 23.3822 62.7285 20.7689C62.7285 18.1557 63.5788 16.0536 65.2763 14.3226C66.9739 12.5916 69.156 11.7277 71.8196 11.7277C74.3461 11.7277 76.4184 12.6099 78.0367 14.3743C79.655 16.1388 80.4657 18.2835 80.4657 20.8024C80.4657 21.1918 80.42 21.709 80.3286 22.3478H66.6234H66.6203ZM66.5868 19.3239H76.711C76.4581 17.9276 75.879 16.8719 74.9708 16.1601C74.0626 15.4513 73.0021 15.0953 71.7861 15.0953C70.4085 15.0953 69.2596 15.4726 68.3422 16.2301C67.4249 16.9875 66.8367 18.0188 66.5868 19.3239Z" fill="black"/>
<path d="M86.9378 15.0586C87.8795 12.926 89.6472 11.8613 92.2407 11.8613V15.883C90.8175 15.7917 89.5771 16.1294 88.5226 16.896C87.4651 17.6657 86.9378 18.9312 86.9378 20.6957V29.3597H83.2197V12.1716H86.9378V15.0586Z" fill="black"/>
<path d="M104.698 15.7463H100.428V23.9967C100.428 24.7085 100.589 25.2166 100.909 25.5269C101.229 25.8372 101.708 26.0075 102.339 26.041C102.97 26.0745 103.756 26.0714 104.698 26.0227V29.3569C101.851 29.7007 99.8061 29.4543 98.5657 28.6177C97.3253 27.7811 96.7066 26.2418 96.7066 23.9936V15.7433H93.5371V12.1688H96.7066V8.45734L100.425 7.35608V12.1688H104.694V15.7433L104.698 15.7463Z" fill="black"/>
<path fill-rule="evenodd" clip-rule="evenodd" d="M29.7662 0.00285339C29.7631 9.66474 21.9185 17.4952 12.2393 17.4983C12.2393 7.8364 20.0869 0.00285339 29.7662 0.00285339Z" fill="#799902"/>
<path fill-rule="evenodd" clip-rule="evenodd" d="M29.7662 34.9999C20.0869 34.9999 12.2393 27.1663 12.2393 17.5014C21.9185 17.5014 29.7662 25.335 29.7662 34.9999Z" fill="#667300"/>
<path fill-rule="evenodd" clip-rule="evenodd" d="M10.6819 10.6658V34.997C4.78172 34.997 0 30.2238 0 24.3342V0C2.9501 0 5.61982 1.19253 7.55202 3.12125C9.48726 5.05302 10.6789 7.71795 10.6789 10.6628L10.6819 10.6658Z" fill="#84BF04"/>
</svg>
