<svg width="91" height="91" viewBox="0 0 91 91" fill="none" xmlns="http://www.w3.org/2000/svg">
<circle cx="45.5" cy="45.5" r="45.5" fill="#799902"/>
<path d="M66.6702 44.8588C66.6702 56.2965 57.325 65.5708 45.7809 65.5708C42.1102 65.5708 38.6877 64.6309 35.6732 62.9995L24.1113 66.6702L27.8884 55.5517C25.9162 52.3273 24.8729 48.6208 24.8738 44.841C24.8916 33.3856 34.2545 24.1113 45.7986 24.1113C57.3072 24.1113 66.6702 33.3856 66.6702 44.8588ZM45.7809 27.3919C36.0987 27.3919 28.2254 35.2121 28.2254 44.8233C28.2254 48.6359 29.4667 52.1647 31.5591 55.0374L29.3603 61.5277L36.0987 59.3997C38.9751 61.285 42.3418 62.2839 45.7809 62.2724C55.463 62.2724 63.3364 54.47 63.3364 44.841C63.313 40.2037 61.4519 35.7647 58.1611 32.4972C54.8703 29.2297 50.4183 27.4002 45.7809 27.4096M56.3319 49.6112C56.1901 49.3984 55.8532 49.2743 55.3389 49.026C54.8424 48.7777 52.3243 47.5364 51.8455 47.3768C51.3845 47.1995 51.0298 47.1109 50.6929 47.6251C50.3382 48.1394 49.3629 49.2743 49.0792 49.6112C48.7777 49.9658 48.4763 50.0013 47.962 49.753C47.4478 49.4871 45.7986 48.9551 43.848 47.2172C42.7341 46.1934 41.7779 45.0102 41.0107 43.7061C40.6916 43.1919 40.9575 42.9259 41.2235 42.6776C41.4541 42.4471 41.7378 42.0747 41.9861 41.791C42.252 41.4895 42.3407 41.259 42.5003 40.9398C42.6776 40.5852 42.589 40.3014 42.4648 40.0532C42.323 39.7872 41.3122 37.2868 40.8689 36.2761C40.4433 35.2476 40.0177 35.4249 39.734 35.4249C39.4325 35.4249 39.0779 35.3717 38.7409 35.3717C38.3863 35.3717 37.8543 35.5136 37.3755 36.0101C36.9145 36.5243 35.6022 37.7479 35.6022 40.266C35.6022 42.7486 37.4287 45.1602 37.677 45.5149C37.9252 45.8518 41.2235 51.1362 46.4193 53.1755C51.6327 55.2148 51.6327 54.5409 52.5726 54.4523C53.5124 54.3636 55.5872 53.211 56.0305 52.0406C56.4561 50.8525 56.4561 49.824 56.3319 49.6112Z" fill="#F3F9E6"/>
</svg>
