<svg width="221" height="188" viewBox="0 0 221 188" fill="none" xmlns="http://www.w3.org/2000/svg">
<path d="M144.31 69.42C144.31 94.57 133.57 117.21 116.41 133.01C118.74 124.18 119.97 114.91 119.97 105.36C119.97 89.62 116.62 74.68 110.57 61.18C104.52 74.68 101.17 89.63 101.17 105.36C101.17 114.91 102.4 124.18 104.73 133.01C87.58 117.22 76.83 94.58 76.83 69.42C76.83 54.38 80.67 40.26 87.42 27.94C93.19 17.39 101.09 8.19001 110.57 0.890015C120.03 8.17001 127.95 17.38 133.72 27.94C140.47 40.25 144.31 54.38 144.31 69.42Z" fill="#9CBE02"/>
<path d="M195.61 161.79C177.82 179.58 154.22 187.99 130.92 187.03C138.81 182.43 146.23 176.75 152.99 169.99C164.12 158.86 172.32 145.93 177.58 132.1C163.75 137.37 150.82 145.57 139.69 156.69C132.94 163.44 127.25 170.87 122.65 178.76C121.69 155.46 130.1 131.86 147.89 114.07C158.52 103.44 171.23 96.16 184.71 92.23C196.25 88.85 208.34 87.94 220.2 89.48C221.74 101.32 220.83 113.43 217.45 124.97C213.52 138.45 206.24 151.16 195.61 161.79Z" fill="#B3BD01"/>
<path d="M73.24 114.08C91.03 131.87 99.44 155.47 98.48 178.77C93.88 170.88 88.2 163.46 81.44 156.7C70.31 145.57 57.38 137.37 43.55 132.11C48.82 145.94 57.02 158.87 68.14 170C74.89 176.75 82.32 182.44 90.21 187.04C66.91 188 43.31 179.59 25.52 161.8C14.89 151.17 7.60997 138.46 3.67997 124.98C0.29997 113.44 -0.61003 101.35 0.92997 89.49C12.77 87.95 24.88 88.86 36.42 92.24C49.9 96.17 62.61 103.45 73.24 114.08Z" fill="#84BF04"/>
</svg>
